Coordinates
version=1
nRows=19
nColumns=34
inDegrees=yes

Units are S.I. units (second, meters, Newtons, ...)
If the header above contains a line with 'inDegrees', this indicates whether rotational values are in degrees (yes) or radians (no).

endheader
time	pelvis_tilt	pelvis_list	pelvis_rotation	pelvis_tx	pelvis_ty	pelvis_tz	hip_flexion_r	hip_adduction_r	hip_rotation_r	knee_angle_r	ankle_angle_r	subtalar_angle_r	mtp_angle_r	hip_flexion_l	hip_adduction_l	hip_rotation_l	knee_angle_l	ankle_angle_l	subtalar_angle_l	mtp_angle_l	lumbar_extension	lumbar_bending	lumbar_rotation	arm_flex_r	arm_add_r	arm_rot_r	elbow_flex_r	pro_sup_r	arm_flex_l	arm_add_l	arm_rot_l	elbow_flex_l	pro_sup_l
      2.25000000	      1.71768663	     -1.14485719	      3.08233666	      0.35779093	      0.92379081	     -0.15258726	     -5.96659869	      7.59823158	     -1.23348295	     -7.71736481	      9.11566997	     -3.94048757	      2.80871494	     21.47427249	     -0.14079221	     -0.32605836	    -39.99174632	      1.45835955	     -7.61136575	     27.11514505	     -7.41244473	      4.27126980	      2.33693963	     -5.09195456	    -22.60251304	      4.68493558	     32.71442237	     90.00000000	     -6.59136064	    -15.25630587	     12.62867246	     23.65829134	     90.00000000
      2.26000000	      1.93701076	     -1.06935444	      3.05061162	      0.36925804	      0.92296517	     -0.15197170	     -7.51465220	      7.59264645	     -1.25263849	     -6.77568233	      9.52186040	     -3.42095390	      2.63782670	     21.73388428	      0.05466000	     -0.60294161	    -37.02335912	      1.24071570	     -8.30763368	     25.80874481	     -7.77524552	      4.19926919	      2.64974692	     -4.71101004	    -22.90465638	      4.70582544	     33.28573526	     90.00000000	     -6.82607025	    -15.22745256	     12.53244526	     23.66002754	     90.00000000
      2.27000000	      1.74651586	     -1.22904666	      3.04651766	      0.38071415	      0.92115103	     -0.15122723	     -8.58518818	      7.84202754	     -1.29548740	     -5.87809415	      9.81868900	     -3.06299501	      2.64024720	     22.51564380	     -0.00509479	     -0.90901981	    -34.22809507	      1.19369829	     -8.43394426	     25.49796709	     -7.64039487	      4.36139370	      2.92679211	     -4.36968536	    -23.15871037	      4.61664323	     33.74082706	     90.00000000	     -7.14053587	    -15.18029991	     12.38927945	     23.69295764	     90.00000000
      2.28000000	      2.18232823	     -1.04598368	      2.89041146	      0.39237465	      0.92024916	     -0.15052603	    -10.33042877	      7.71259102	     -1.27930790	     -5.04695564	     10.11662271	     -2.50974241	      2.41427821	     22.29195672	      0.26614393	     -1.39810875	    -30.92468060	      0.73089651	     -9.43622942	     24.33178583	     -8.26694363	      4.15301350	      3.33933959	     -3.99110589	    -23.42767941	      4.55156109	     34.32984264	     90.00000000	     -7.11722246	    -15.00702092	     11.97692109	     23.05351031	     90.00000000
      2.29000000	      2.29992008	     -1.03284925	      2.91643075	      0.40407182	      0.91853620	     -0.15019985	    -11.50985885	      7.72799781	     -1.86095804	     -4.64732124	     11.32115212	     -1.00402708	      0.24499545	     22.50074717	      0.47920393	     -1.57707800	    -27.93390450	      1.80781345	     -9.14566202	     16.13228830	     -8.50863276	      4.17242843	      3.57162122	     -3.69170574	    -23.69645572	      4.35829782	     34.92155080	     90.00000000	     -7.28393152	    -14.92055443	     11.87055152	     22.94284908	     90.00000000
      2.30000000	      2.48438780	     -1.04664769	      2.82795115	      0.41574033	      0.91678049	     -0.14967487	    -12.81753855	      7.79873852	     -1.77537054	     -4.10885820	     11.54828683	     -0.87283323	      0.26501819	     22.56272301	      0.59337899	     -1.95042772	    -24.81779449	      1.95309171	     -9.04306075	     15.87702802	     -8.83321065	      4.20210296	      3.88968385	     -3.30647392	    -23.92293397	      4.30070172	     35.34257894	     90.00000000	     -7.37010231	    -14.76364651	     11.71598956	     22.64225702	     90.00000000
      2.31000000	      2.55169681	     -1.10403762	      2.80122915	      0.42753012	      0.91472267	     -0.14926886	    -13.99278825	      7.91566607	     -1.59097044	     -3.59875350	     11.84762312	     -0.78449018	      0.36969730	     22.70549742	      0.70548004	     -2.22982453	    -21.75254747	      2.00393606	     -8.59292575	     15.60030163	     -8.98976032	      4.26944221	      4.13937101	     -3.00373320	    -24.16956166	      4.20638807	     35.80141660	     90.00000000	     -7.50223536	    -14.67519682	     11.64456685	     22.37806138	     90.00000000
      2.32000000	      2.56039092	     -1.19989378	      2.73673839	      0.43934548	      0.91248737	     -0.14884108	    -14.96770148	      8.05511398	     -1.50670755	     -3.36145535	     12.23047255	     -0.57025629	      0.53979994	     22.85776068	      0.77757447	     -2.49632182	    -18.78663556	      2.02161403	     -7.73614278	     15.38729088	     -9.09113072	      4.37953906	      4.39940343	     -2.66641603	    -24.37513808	      4.07753069	     36.14704522	     90.00000000	     -7.59430825	    -14.51638894	     11.58324349	     22.03581876	     90.00000000
      2.33000000	      2.57056628	     -1.31913178	      2.71477142	      0.45131549	      0.91021607	     -0.14852131	    -15.93460163	      8.20742937	     -1.50262719	     -3.15210949	     12.58571279	     -0.17195414	      0.70156603	     22.97645932	      0.83936593	     -2.72042398	    -15.98980417	      1.99606736	     -6.40811646	     15.21950046	     -9.17037378	      4.51517121	      4.61829750	     -2.36390104	    -24.60684113	      4.13169378	     36.47570465	     90.00000000	     -7.62882179	    -14.35360224	     11.49299968	     21.58747219	     90.00000000
      2.34000000	      2.39214660	     -1.55582985	      2.67138325	      0.46305434	      0.90758967	     -0.14848464	    -16.59363881	      8.46641029	     -1.37354382	     -3.14150326	     12.92778280	     -0.01597199	      0.81787959	     23.29512356	      0.85177816	     -2.62306245	    -13.41647928	      1.97904683	     -5.46910560	     15.17249006	     -9.07314191	      4.79310139	      4.82911294	     -2.04330972	    -24.85769165	      4.11009513	     36.72770734	     90.00000000	     -7.79001749	    -14.19477259	     11.50957627	     21.54452171	     90.00000000
      2.35000000	      2.56875583	     -1.56703694	      2.54327194	      0.47528462	      0.90563973	     -0.14818391	    -17.63446155	      8.46963497	     -1.48920435	     -3.18933431	     13.29856347	      0.47019756	      1.08039868	     23.19727613	      0.95960487	     -3.30177261	    -11.17063102	      1.89414282	     -2.99074016	     15.08160398	     -9.31891580	      4.80818818	      5.11096298	     -1.72711186	    -25.01070937	      4.24133525	     36.85820254	     90.00000000	     -7.65496152	    -13.98772952	     11.45594176	     20.79711112	     90.00000000
      2.36000000	      2.50265580	     -1.73415276	      2.41549797	      0.48748578	      0.90327399	     -0.14792587	    -18.33725315	      8.61780363	     -1.41267819	     -3.37466751	     13.57929057	      0.83272765	      1.41312587	     23.42884788	      0.94938182	     -3.78769992	     -9.38611086	      1.76781979	     -0.74748326	     15.03667943	     -9.29752662	      4.97420232	      5.40723382	     -1.48716957	    -25.18124588	      4.24567034	     37.01017866	     90.00000000	     -7.64144839	    -13.82746677	     11.76206291	     20.34792188	     90.00000000
      2.37000000	      2.32242772	     -1.91110664	      2.28569873	      0.49961232	      0.90093131	     -0.14780536	    -18.83711504	      8.75561525	     -1.29585542	     -3.69536243	     13.81733645	      1.03424183	      1.59312329	     23.74583572	      0.98669028	     -3.90970573	     -7.89315679	      1.34768804	      0.72243994	     15.01177809	     -9.15835932	      5.15868129	      5.63749413	     -1.23223832	    -25.31468525	      4.26566208	     37.15866811	     90.00000000	     -7.71980163	    -13.68678979	     11.91155315	     20.18999868	     90.00000000
      2.38000000	      2.28007636	     -1.98354021	      1.99904692	      0.51211575	      0.89893175	     -0.14742519	    -19.41416741	      8.72916117	     -1.26572752	     -4.19205035	     14.05116206	      1.53520771	      2.01119623	     24.01698097	      0.99088835	     -4.96444249	     -7.07129397	      1.18891762	      3.38543902	     15.06530210	     -9.16462162	      5.19332751	      6.06141195	     -1.07430051	    -25.43678432	      4.39617269	     37.19733136	     90.00000000	     -7.51604595	    -13.46875460	     12.18627755	     19.31915089	     90.00000000
      2.39000000	      2.21938285	     -2.07220237	      1.75444880	      0.52493137	      0.89698439	     -0.14684443	    -19.93224192	      8.73860962	     -1.31099479	     -4.78944473	     14.18221168	      2.03669498	      2.54244021	     24.33043435	      0.96414372	     -5.81255927	     -6.80477969	      1.42754559	      5.85601705	     15.05633218	     -9.09237434	      5.19260734	      6.40490726	     -0.94763452	    -25.39332402	      4.34621021	     37.20436802	     90.00000000	     -7.48765353	    -13.42008013	     12.76289586	     18.94303026	     90.00000000
      2.40000000	      2.12861646	     -2.14887174	      1.62434181	      0.53811338	      0.89511148	     -0.14685283	    -20.38785409	      8.72872189	     -1.33897474	     -5.47000331	     14.15887153	      2.09662485	      2.59284001	     24.61269472	      1.09998866	     -5.82727082	     -6.93150947	      1.42044426	      6.01705545	     15.05115509	     -8.95155333	      5.25509127	      6.54257549	     -0.99785432	    -25.46440478	      4.28997245	     37.43664425	     90.00000000	     -7.81785064	    -13.36329501	     12.73378620	     19.24843545	     90.00000000
      2.41000000	      2.04311520	     -2.00827003	      1.23711582	      0.55166591	      0.89358279	     -0.14617418	    -20.73940946	      8.37680780	     -1.41667677	     -6.40464091	     14.23298038	      3.22911500	      3.10474282	     24.83260363	      1.23574505	     -6.61262494	     -7.45291233	      1.38450449	      7.70718711	     15.07098986	     -8.75954753	      4.97253498	      7.04190797	     -1.06074975	    -25.35682353	      4.30965186	     37.22045467	     90.00000000	     -7.59091776	    -13.25128067	     12.99336763	     18.34290586	     90.00000000
      2.42000000	      2.01879636	     -2.01925711	      1.06090746	      0.56526330	      0.89205520	     -0.14578935	    -21.13720849	      8.27426202	     -1.40095587	     -7.32863654	     14.10403550	      3.27722933	      3.13684386	     24.99676570	      1.35410658	     -6.41963881	     -8.40296092	      1.33953689	      7.72548409	     15.06768681	     -8.67645871	      4.89226912	      7.13918006	     -1.21393986	    -25.26277845	      4.29176341	     37.51704128	     90.00000000	     -7.92507029	    -13.28473894	     12.93922442	     18.79083451	     90.00000000
      2.43000000	      1.92456171	     -1.88165749	      0.77270511	      0.57958914	      0.89044730	     -0.14519506	    -21.37997735	      7.90096811	     -1.83763439	     -8.46575924	     13.98057282	      4.80146325	      3.77451536	     25.30740749	      1.52825967	     -6.67584125	    -10.00577711	      1.80168634	      8.13655170	     15.04210806	     -8.37744482	      4.61195672	      7.48455953	     -1.51077736	    -25.03404288	      4.06260024	     37.32496225	     90.00000000	     -7.84039137	    -13.26408846	     13.33693299	     18.00498390	     90.00000000
